<?xml version="1.0" encoding="UTF-8" standalone="no"?>
<svg
   xmlns:dc="http://purl.org/dc/elements/1.1/"
   xmlns:cc="http://creativecommons.org/ns#"
   xmlns:rdf="http://www.w3.org/1999/02/22-rdf-syntax-ns#"
   xmlns:svg="http://www.w3.org/2000/svg"
   xmlns="http://www.w3.org/2000/svg"
   width="784.65179"
   height="664.3833"
   viewBox="0 0 207.60579 175.78475"
   version="1.1"
   id="svg8">
  <style>
    @keyframes rotate{
        from {
            transform: rotate(0deg);
        }
        to {
            transform: rotate(360deg);
        }
    }
    path{
        fill:#fff;
    }
    #path3737{
        transform-origin: 50% 37.6%;
        animation: rotate 30s infinite linear;
    }
  </style>
  <defs
     id="defs2" />
  <metadata
     id="metadata5">
    <rdf:RDF>
      <cc:Work
         rdf:about="">
        <dc:format>image/svg+xml</dc:format>
        <dc:type
           rdf:resource="http://purl.org/dc/dcmitype/StillImage" />
        <dc:title></dc:title>
      </cc:Work>
    </rdf:RDF>
  </metadata>
  <path
     id="path3737"
     d="m 101.16855,0 a 66.145833,66.145832 0 0 0 -2.545067,0.15348 l -0.24701,6.32726 A 59.84623,59.84623 0 0 0 94.071832,7.10086 L 92.178403,1.00097 a 66.145833,66.145832 0 0 0 -2.49184,0.55914 l 0.61754,6.30401 a 59.84623,59.84623 0 0 0 -4.20647,1.10278 l -2.66133,-5.68906 a 66.145833,66.145832 0 0 0 -2.42621,0.80563 l 1.47949,6.20014 a 59.84623,59.84623 0 0 0 -3.98063,1.71669 l -3.46387,-5.35471 a 66.145833,66.145832 0 0 0 -2.26911,1.17512 l 2.28719,5.88181 a 59.84623,59.84623 0 0 0 -3.70364,2.27067 l -4.14084,-4.81005 a 66.145833,66.145832 0 0 0 -2.08359,1.48984 l 3.08353,5.54643 a 59.84623,59.84623 0 0 0 -3.39307,2.69389 l -4.72685,-4.17546 a 66.145833,66.145832 0 0 0 -1.92391,1.68982 l 3.83491,5.10822 a 59.84623,59.84623 0 0 0 -2.94556,3.16828 l -5.33352,-3.54759 a 66.145833,66.145832 0 0 0 -1.58285,2.01642 l 4.44779,4.49068 a 59.84623,59.84623 0 0 0 -2.51819,3.52072 l -5.67924,-2.74557 a 66.145833,66.145832 0 0 0 -1.34411,2.19211 l 5.04672,3.86488 a 59.84623,59.84623 0 0 0 -2.01279,3.81527 l -6.02341,-1.95388 a 66.145833,66.145832 0 0 0 -1.08159,2.33164 l 5.52938,3.14347 a 59.84623,59.84623 0 0 0 -1.41593,4.07314 l -6.30711,-1.12861 a 66.145833,66.145832 0 0 0 -0.63717,2.49493 l 5.87819,2.35077 a 59.84623,59.84623 0 0 0 -0.94464,4.20594 l -6.2668,-0.25373 a 66.145833,66.145832 0 0 0 -0.38551,2.55333 l 6.1805,1.53789 a 59.84623,59.84623 0 0 0 -0.33745,4.28295 l -6.29935,0.60719 a 66.145833,66.145832 0 0 0 -0.0755,1.50741 66.145833,66.145832 0 0 0 0.0382,1.07435 l 6.34948,0.68316 a 59.84623,59.84623 0 0 0 0.2217,4.29121 l -6.10247,1.44591 a 66.145833,66.145832 0 0 0 0.31264,2.57193 l 6.36912,-0.18707 a 59.84623,59.84623 0 0 0 0.85989,4.18941 l -5.93607,2.29702 a 66.145833,66.145832 0 0 0 0.6873,2.49959 l 6.22339,-1.0418 a 59.84623,59.84623 0 0 0 1.46761,4.0225 l -5.56555,3.08301 a 66.145833,66.145832 0 0 0 1.06143,2.37195 l 6.05442,-1.88981 a 59.84623,59.84623 0 0 0 1.91409,3.81786 l -5.04,3.77134 a 66.145833,66.145832 0 0 0 1.29398,2.25568 l 5.77742,-2.71353 a 59.84623,59.84623 0 0 0 2.45928,3.47627 l -4.54804,4.4912 a 66.145833,66.145832 0 0 0 1.66191,2.00402 l 5.29839,-3.43959 a 59.84623,59.84623 0 0 0 2.90576,3.11919 l -3.85661,5.01882 a 66.145833,66.145832 0 0 0 1.90996,1.77973 l 4.80694,-4.15117 a 59.84623,59.84623 0 0 0 3.26854,2.71612 l -3.13159,5.48752 a 66.145833,66.145832 0 0 0 2.07946,1.57406 l 4.22196,-4.79557 a 59.84623,59.84623 0 0 0 3.63699,2.19263 l -2.39262,5.95519 a 66.145833,66.145832 0 0 0 2.34456,1.14877 l 3.49384,-5.27151 a 59.84623,59.84623 0 0 0 3.87935,1.73581 l -1.53014,6.1097 a 66.145833,66.145832 0 0 0 2.45877,0.89762 l 2.75952,-5.73143 a 59.84623,59.84623 0 0 0 4.07107,1.17512 l -0.68885,6.30452 a 66.145833,66.145832 0 0 0 2.54817,0.58447 l 1.94716,-6.03478 a 59.84623,59.84623 0 0 0 4.20853,0.55036 l 0.17777,6.39754 a 66.145833,66.145832 0 0 0 2.612237,0.13074 l 1.10123,-6.20892 a 59.84623,59.84623 0 0 0 2.45566,0.0873 59.84623,59.84623 0 0 0 1.78542,-0.0894 l 1.04335,6.28851 a 66.145833,66.145832 0 0 0 2.60708,-0.1571 l 0.24649,-6.32623 a 59.84623,59.84623 0 0 0 4.20181,-0.60565 l 1.89549,6.10661 a 66.145833,66.145832 0 0 0 2.55179,-0.5731 l -0.61754,-6.30245 a 59.84623,59.84623 0 0 0 4.11241,-1.06609 l 2.66031,5.68648 a 66.145833,66.145832 0 0 0 2.48253,-0.82528 l -1.47898,-6.19807 a 59.84623,59.84623 0 0 0 3.89692,-1.66863 l 3.46129,5.35058 a 66.145833,66.145832 0 0 0 2.32544,-1.18804 l -2.28565,-5.87871 a 59.84623,59.84623 0 0 0 3.62665,-2.22416 l 4.15014,4.82141 a 66.145833,66.145832 0 0 0 2.12493,-1.51928 l -3.08095,-5.54178 a 59.84623,59.84623 0 0 0 3.34347,-2.62827 l 4.72271,4.17132 a 66.145833,66.145832 0 0 0 1.95853,-1.72082 l -3.8318,-5.10408 a 59.84623,59.84623 0 0 0 2.91093,-3.10059 l 5.32732,3.54242 a 66.145833,66.145832 0 0 0 1.62781,-2.03192 l -4.44314,-4.48603 a 59.84623,59.84623 0 0 0 2.48202,-3.4711 l 5.69733,2.75384 a 66.145833,66.145832 0 0 0 1.36167,-2.21951 L 155.8721,95.8241 a 59.84623,59.84623 0 0 0 2.01486,-3.75947 l 6.01514,1.95131 a 66.145833,66.145832 0 0 0 1.11672,-2.34353 l -5.54591,-3.1533 a 59.84623,59.84623 0 0 0 1.42937,-4.02765 l 6.3252,1.13171 a 66.145833,66.145832 0 0 0 0.64388,-2.50941 l -5.86992,-2.34714 a 59.84623,59.84623 0 0 0 0.93896,-4.18424 l 6.28954,0.25528 a 66.145833,66.145832 0 0 0 0.38705,-2.56264 l -6.17275,-1.53582 a 59.84623,59.84623 0 0 0 0.36329,-4.27312 l 6.2947,-0.60668 a 66.145833,66.145832 0 0 0 0.091,-1.81591 66.145833,66.145832 0 0 0 -0.0274,-0.76585 L 163.821,64.59448 a 59.84623,59.84623 0 0 0 -0.21498,-4.29741 l 6.11591,-1.44953 a 66.145833,66.145832 0 0 0 -0.3111,-2.56418 l -6.36033,0.18655 a 59.84623,59.84623 0 0 0 -0.83458,-4.21525 l 5.92884,-2.29495 a 66.145833,66.145832 0 0 0 -0.65474,-2.4908 l -6.23011,1.04335 a 59.84623,59.84623 0 0 0 -1.46503,-4.05971 l 5.58312,-3.09231 a 66.145833,66.145832 0 0 0 -1.05058,-2.34921 l -6.04717,1.88774 a 59.84623,59.84623 0 0 0 -1.91306,-3.87367 l 5.03431,-3.76721 a 66.145833,66.145832 0 0 0 -1.27899,-2.2288 l -5.77019,2.70991 a 59.84623,59.84623 0 0 0 -2.47168,-3.53932 l 4.54339,-4.48603 a 66.145833,66.145832 0 0 0 -1.61902,-1.988 l -5.29167,3.43442 a 59.84623,59.84623 0 0 0 -2.95486,-3.1719 l 3.86488,-5.02915 a 66.145833,66.145832 0 0 0 -1.87637,-1.74873 l -4.80229,4.14703 a 59.84623,59.84623 0 0 0 -3.31969,-2.78174 l 3.12952,-5.48338 a 66.145833,66.145832 0 0 0 -2.03605,-1.54823 l -4.22145,4.79506 a 59.84623,59.84623 0 0 0 -3.70313,-2.25361 l 2.39107,-5.95209 a 66.145833,66.145832 0 0 0 -2.28875,-1.13482 l -3.49126,5.26686 a 59.84623,59.84623 0 0 0 -3.96772,-1.77508 l 1.53118,-6.11436 a 66.145833,66.145832 0 0 0 -2.40296,-0.87746 l -2.75745,5.7273 a 59.84623,59.84623 0 0 0 -4.16564,-1.20975 l 0.68833,-6.30401 a 66.145833,66.145832 0 0 0 -2.48667,-0.57826 l -1.94872,6.04098 A 59.84623,59.84623 0 0 0 110.3855,6.60267 l -0.17777,-6.39703 a 66.145833,66.145832 0 0 0 -2.5492,-0.12712 l -1.10122,6.20789 a 59.84623,59.84623 0 0 0 -2.50993,-0.0889 59.84623,59.84623 0 0 0 -1.83606,0.0915 z m 2.90835,15.582 c 8.29095,0.008 15.23519,1.63777 22.56038,5.29476 9.76395,4.87451 17.60686,12.72458 22.43687,22.45755 3.63713,7.32922 5.23023,14.16388 5.24413,22.49836 0.0228,13.62128 -5.05372,25.91955 -14.68593,35.57819 -8.46916,8.49239 -19.40149,13.53139 -31.64716,14.58671 -3.41694,0.29447 -4.73187,0.29089 -8.304917,-0.0238 -6.25201,-0.55061 -12.39874,-2.3324 -18.29708,-5.30303 C 70.631833,105.25593 62.515263,96.6365 57.822873,85.65055 47.400723,61.2499 57.768973,32.7756 81.383193,20.947 c 7.43029,-3.7219 14.41574,-5.37325 22.693707,-5.36504 z m -12.022007,9.97561 c -0.68196,0.0231 -4.80308,1.65352 -7.15201,2.85151 -5.806111,2.96125 -11.0073,7.3861 -14.893151,12.67003 -0.42545,0.57852 -0.7162,1.05161 -0.64596,1.05161 0.0703,0 0.95018,-0.56616 1.95492,-1.25832 v -5.3e-4 c 2.9173,-2.00971 7.405511,-3.51767 10.50014,-3.52795 l 1.31826,-0.004 1.22266,-2.58434 c 1.70285,-3.5992 4.35959,-6.79086 7.180451,-8.62634 0.3857,-0.25097 0.65728,-0.50028 0.603579,-0.55397 -0.0134,-0.0134 -0.0434,-0.0191 -0.0889,-0.0176 z m 24.023337,0.006 c -0.0377,-2.4e-4 -0.0628,0.005 -0.0744,0.0171 -0.0503,0.0503 0.22407,0.29564 0.60978,0.54518 3.14491,2.03473 6.20153,5.91846 7.88272,10.01593 l 0.49145,1.19786 1.33273,0.004 c 3.11532,0.0102 7.63737,1.52927 10.42779,3.50262 0.96119,0.67972 1.83349,1.24661 1.93838,1.25988 0.10487,0.0133 -0.15784,-0.45773 -0.58343,-1.04697 -3.97744,-5.50651 -9.49607,-10.09892 -15.69413,-13.05967 -2.39509,-1.1441 -5.7659,-2.43197 -6.33088,-2.43551 z m -12.19409,3.27111 c -3.72988,0.0449 -7.484857,1.22099 -10.749207,3.56671 -1.69494,1.21798 -2.642391,2.16276 -4.04781,4.0349 l -0.93121,1.24023 1.84588,0.67541 c 5.79388,2.11924 10.040027,5.67227 12.467457,10.43192 1.36988,2.68604 1.70015,2.81272 2.58588,0.98961 1.5345,-3.15845 4.15836,-6.27041 7.00423,-8.30751 1.7031,-1.2191 5.14582,-2.91041 6.83886,-3.35948 l 1.079,-0.28629 -0.44855,-0.80615 c -0.24674,-0.4433 -1.36159,-1.71418 -2.47737,-2.82463 -3.6173,-3.60004 -8.37159,-5.41246 -13.16716,-5.35472 z m -17.419597,12.72067 -0.30644,1.10691 c -0.80612,2.91227 -0.69716,7.27324 0.25735,10.31669 0.732,2.33397 2.32037,5.04583 3.94394,6.73292 1.12564,1.16969 1.37081,1.33215 1.24592,0.82579 -0.55977,-2.26951 -0.58757,-2.19741 1.01182,-2.66237 0.80357,-0.23361 1.80414,-0.43952 2.22312,-0.45734 0.675979,-0.0288 0.79273,0.076 1.03715,0.92863 0.23706,0.827 0.53793,1.11496 2.157489,2.0686 2.184108,1.28606 2.415238,1.35044 1.87069,0.51935 -0.22037,-0.33633 -0.7336,-0.72735 -1.1405,-0.86919 -0.4069,-0.14185 -0.74001,-0.3318 -0.74001,-0.42168 0,-0.37864 0.8038,-2.88872 0.92501,-2.88872 0.0728,0 0.75593,0.18146 1.518248,0.40308 1.35643,0.39432 1.3831,0.42005 1.24592,1.19786 -0.0834,0.47282 0.006,1.05023 0.21963,1.42524 0.33105,0.57972 0.36075,0.43631 0.36897,-1.78129 0.009,-2.35767 -0.008,-2.42731 -0.75086,-3.13935 l -0.76016,-0.72812 1.16065,-1.17874 c 1.14909,-1.16664 1.15747,-1.18661 0.77566,-1.92494 -0.5923,-1.1454 -2.37069,-3.35756 -3.664368,-4.55838 -2.70555,-2.51129 -7.08642,-4.44895 -10.75904,-4.7594 z m 34.030997,0.0708 c -1.8336,0 -4.95564,0.87977 -7.30602,2.05931 -2.56461,1.28708 -5.57821,4.01555 -7.10344,6.43061 l -1.04697,1.65726 1.16169,1.17978 1.16169,1.17925 -0.76016,0.72812 c -0.7432,0.71204 -0.76012,0.78168 -0.75138,3.13935 0.008,2.2176 0.0379,2.36101 0.36897,1.78129 0.21413,-0.37501 0.30301,-0.95242 0.21963,-1.42524 -0.13718,-0.77781 -0.11051,-0.80354 1.24591,-1.19786 0.76233,-0.22162 1.44595,-0.40308 1.51877,-0.40308 0.22639,0 0.95232,2.77703 0.79324,3.03444 -0.0828,0.13394 -0.31434,0.24392 -0.51418,0.24392 -0.42168,0 -1.37201,0.8833 -1.37201,1.27537 0,0.14687 0.0851,0.22022 0.18913,0.16278 0.10402,-0.0574 1.00248,-0.58212 1.99626,-1.16582 1.56061,-0.91662 1.83765,-1.18781 2.03244,-1.99058 0.20073,-0.82731 0.30901,-0.92595 0.98598,-0.8971 0.41831,0.0178 1.418,0.22373 2.22157,0.45734 1.59487,0.46365 1.59262,0.45793 0.99736,2.66237 -0.1544,0.5718 -0.0703,0.53661 0.90485,-0.37828 2.16675,-2.03291 4.15816,-5.81446 4.79919,-9.11313 0.3524,-1.81338 0.20517,-7.0619 -0.23771,-8.47494 -0.28832,-0.91992 -0.32903,-0.94516 -1.50481,-0.94516 z m -38.229707,0.46612 -0.69815,0.13953 c -1.46107,0.29216 -4.41056,1.71752 -6.03013,2.91352 -3.02126,2.23112 -5.61492,5.93038 -6.81405,9.71878 -0.29974,0.94699 -0.53403,2.6448 -0.6258,4.53874 -0.16911,3.48979 0.29357,5.8957 1.67638,8.72143 0.83296,1.70211 2.40682,4.01695 2.72335,4.00544 0.10266,-0.003 0.47029,-0.46957 0.81701,-1.03507 0.8616,-1.40539 3.78915,-4.32072 5.51387,-5.49062 3.25617,-2.20871 6.64449,-3.4568 10.10688,-3.72381 1.11641,-0.0861 2.02985,-0.25343 2.02985,-0.37155 0,-0.11814 -0.0994,-0.21498 -0.22066,-0.21498 -0.12133,0 -0.99157,-0.76307 -1.93373,-1.69602 -4.06404,-4.02424 -6.3669,-9.48435 -6.49832,-15.40629 z m 43.945627,0.0388 c -0.23503,5.3e-4 -0.33507,0.60269 -0.36638,2.20607 -0.0757,3.87308 -1.16939,7.73062 -3.15071,11.11043 -0.46221,0.78846 -1.86504,2.47386 -3.11713,3.74551 l -2.27634,2.31252 0.73173,0.14624 c 0.40265,0.0805 1.04044,0.14624 1.41697,0.14624 2.20732,0 6.94432,1.81408 9.79837,3.75223 1.7932,1.21774 4.71597,4.11563 5.59191,5.54437 0.34671,0.5655 0.71003,1.03135 0.8077,1.03507 0.0977,0.003 0.58542,-0.52724 1.08366,-1.17977 3.04211,-3.98412 4.21627,-10.24017 2.87992,-15.34221 -1.11753,-4.26662 -3.85826,-8.25745 -7.36079,-10.71718 -1.57325,-1.10485 -5.19782,-2.76099 -6.03891,-2.75952 z M 91.680243,62.32057 c -0.31318,0.003 -0.80826,0.0687 -1.57768,0.19793 -5.68253,0.95481 -10.8292,4.78207 -13.44259,9.99628 -1.25341,2.5008 -1.25378,2.5285 -0.0181,3.3135 3.86378,2.45459 8.69429,3.3472 13.34234,2.46548 2.20671,-0.4186 4.65503,-1.33052 5.85029,-2.17971 0.39003,-0.27711 0.98719,-1.13269 1.32705,-1.90118 0.67996,-1.5375 1.13312,-1.69577 0.49713,-0.17363 -0.21797,0.52168 -0.36516,0.97997 -0.3266,1.01854 0.0386,0.0387 0.3459,-0.1377 0.68265,-0.39171 0.59024,-0.44523 0.59935,-0.50016 0.26096,-1.52549 -0.32382,-0.98119 -0.31358,-1.0903 0.12609,-1.41179 0.26214,-0.19167 0.61165,-0.34882 0.77722,-0.34882 0.16556,0 0.48699,-0.28374 0.71416,-0.63045 0.227177,-0.34672 0.366087,-0.62994 0.308507,-0.62994 -0.0576,0 -1.011887,0.51017 -2.120797,1.13378 -1.80486,1.01497 -2.03378,1.22769 -2.18436,2.03037 -0.0925,0.49315 -0.32248,0.95567 -0.51057,1.02784 -0.18808,0.0721 -1.24664,-0.11301 -2.35231,-0.41134 l -2.01021,-0.5426 0.59376,-2.15801 c 0.3266,-1.18707 0.62915,-2.19391 0.67231,-2.23707 0.0432,-0.0432 0.54837,0.0408 1.12241,0.18655 0.99004,0.2513 1.15148,0.20583 3.14348,-0.89039 1.96403,-1.08085 2.04422,-1.1563 1.23404,-1.16065 -0.52281,-0.002 -1.07775,0.19446 -1.39992,0.49713 l -0.53382,0.50126 -1.10949,-1.13016 -1.10949,-1.13068 0.82424,-0.85008 0.82424,-0.85008 -1.13327,-0.66456 c -0.62331,-0.36529 -1.3025,-0.66404 -1.50895,-0.66404 -0.20644,0 -0.4214,-0.13869 -0.47801,-0.30851 -0.0404,-0.12122 -0.17154,-0.18088 -0.48472,-0.17777 z m 25.052727,0.0274 c -0.35023,-1.3e-4 -0.58711,0.0584 -0.66662,0.18707 -0.0925,0.14965 -0.3395,0.27182 -0.54932,0.27182 -0.20982,0 -0.89133,0.29875 -1.51464,0.66404 l -1.13378,0.66456 0.82424,0.85008 0.82424,0.85059 -1.10898,1.13017 -1.10949,1.13016 -0.53382,-0.50126 c -0.32005,-0.30068 -0.88106,-0.50115 -1.40043,-0.50023 l -0.8661,0.002 0.63046,0.33383 c 0.34671,0.18364 1.28637,0.70635 2.08824,1.16168 1.34819,0.76555 1.53755,0.80792 2.51354,0.56018 0.58049,-0.14735 1.09063,-0.23281 1.13378,-0.18966 0.0432,0.0432 0.34572,1.05001 0.67231,2.23708 l 0.59377,2.158 -2.00247,0.54054 c -1.10124,0.29715 -2.12885,0.49772 -2.2841,0.44597 -0.15525,-0.0518 -0.40454,-0.52129 -0.55345,-1.04387 -0.23613,-0.82865 -0.52038,-1.09116 -2.22467,-2.05155 -1.0748,-0.60566 -1.9544,-1.04325 -1.9544,-0.97255 0,0.43271 0.59732,1.12229 0.8785,1.01441 0.45597,-0.17499 0.90008,0.42069 1.7601,2.35903 0.89278,2.01218 1.76701,2.83167 3.90518,3.6623 3.4596,1.34397 7.05497,1.69927 10.27121,1.01493 v -5.3e-4 c 0.94519,-0.20111 2.38068,-0.59555 3.18999,-0.87643 1.49272,-0.51809 4.07885,-1.88455 4.32738,-2.28668 0.1853,-0.29983 -0.54474,-2.08036 -1.603,-3.90984 -1.20888,-2.08985 -4.55192,-5.36912 -6.67556,-6.54844 -2.26204,-1.25619 -5.91443,-2.35689 -7.43211,-2.35748 z m -22.582077,0.009 c -0.12549,-0.002 -0.2357,0.0178 -0.33486,0.0558 -0.34776,0.13344 -0.21365,0.29381 0.66197,0.79116 0.60395,0.34304 1.15359,0.56776 1.22163,0.49972 0.068,-0.068 0.40763,0.0998 0.75448,0.37258 0.34684,0.27282 0.92716,0.49356 1.28984,0.49041 0.57339,-0.005 0.47883,-0.11892 -0.72709,-0.87385 -1.48901,-0.93214 -2.32218,-1.32884 -2.86597,-1.33583 z m 19.858727,0.002 c -0.54684,0.003 -1.37574,0.39698 -2.87217,1.33377 -1.20592,0.75493 -1.30099,0.8689 -0.7276,0.87385 0.36268,0.002 0.93016,-0.20431 1.2609,-0.46095 0.33074,-0.25667 0.71449,-0.42771 0.85318,-0.37982 0.13868,0.0479 0.70616,-0.18811 1.2609,-0.52452 0.83323,-0.50531 0.93104,-0.64174 0.56276,-0.78393 -0.10089,-0.039 -0.21177,-0.0591 -0.33797,-0.0584 z m 32.04353,2.52233 c -0.007,0.002 -0.0138,0.006 -0.0212,0.0134 -0.0851,0.0851 -0.42091,0.91654 -0.7462,1.84744 -0.95611,2.73619 -2.77584,5.50404 -5.23173,7.95713 l -2.22467,2.22157 0.45321,1.95751 c 0.81354,3.51491 0.50979,8.12701 -0.79375,12.0437 -0.31574,0.94865 1.11111,-0.92319 2.55695,-3.35431 3.32564,-5.59197 5.14657,-11.03216 5.88181,-17.57412 0.27559,-2.45213 0.33783,-5.16136 0.12557,-5.11235 z m -83.922527,0.19947 c -0.22571,0.0481 -0.19137,1.58824 0.0987,4.64727 0.72994,7.6974 3.41733,14.82589 8.01347,21.25864 0.32148,0.44994 0.62146,0.81804 0.66662,0.81804 0.0452,0 -0.18854,-0.85222 -0.51934,-1.89394 -1.15069,-3.62354 -1.27992,-8.06607 -0.34262,-11.78843 l 0.29869,-1.18597 -2.23501,-2.21537 c -2.47455,-2.45273 -4.48798,-5.54208 -5.29218,-8.12152 -0.32405,-1.0394 -0.5529,-1.54764 -0.68833,-1.51877 z m 40.034247,6.51175 c -0.0531,-2e-5 -0.12746,0.11068 -0.23099,0.29197 -0.21413,0.375 -0.30302,0.95242 -0.21963,1.42524 0.1373,0.7785 0.11148,0.80312 -1.25884,1.20147 -0.769437,0.2237 -1.503427,0.37677 -1.630897,0.34004 -0.12748,-0.0368 -0.63136,0.29381 -1.11983,0.73483 -1.03125,0.93112 -1.29093,2.09846 -1.25212,5.62809 0.0387,3.52642 0.96243,6.48593 3.02979,9.70793 0.958767,1.49422 4.105687,4.91701 4.520647,4.91701 0.0716,0 0.70306,-0.47961 1.40353,-1.06608 1.48942,-1.24701 3.59527,-4.02197 4.54856,-5.99395 1.11907,-2.3149 1.70201,-5.09341 1.69344,-8.06928 -0.01,-3.40301 -0.24278,-4.34561 -1.29088,-5.22448 -0.45971,-0.38549 -0.93123,-0.67083 -1.048,-0.63407 -0.11675,0.0368 -0.84183,-0.11634 -1.61127,-0.34004 -1.37032,-0.39835 -1.39614,-0.42297 -1.25883,-1.20147 0.0834,-0.47282 -0.006,-1.05024 -0.21963,-1.42524 -0.33127,-0.58013 -0.36075,-0.44006 -0.36897,1.75338 -0.009,2.31045 0.0141,2.40681 0.74517,3.16105 l 0.75396,0.77825 -1.63659,1.62212 -1.63659,1.62212 -1.63659,-1.62212 -1.6366,-1.62212 0.75396,-0.77825 c 0.73103,-0.75424 0.75383,-0.8506 0.74518,-3.16105 -0.006,-1.50799 -0.0211,-2.04532 -0.13798,-2.04535 z m 7.78867,1.70222 c -0.1278,-0.0117 -0.22906,0.15823 -0.2806,0.51987 -0.0485,0.34028 0.13747,0.69287 0.49764,0.94516 0.31612,0.22141 0.60027,0.40256 0.63149,0.40256 0.0312,0 -0.0907,-0.4251 -0.27079,-0.94516 -0.20502,-0.5922 -0.41343,-0.90736 -0.57774,-0.92243 z m 2.32441,3.82199 c -0.0787,0.0111 -0.0809,0.0919 -0.0377,0.23409 1.82818,6.01734 0.57044,13.31814 -3.22771,18.74046 -0.63143,0.90144 -1.14881,1.70782 -1.15031,1.79163 -0.003,0.15717 3.16471,1.12858 4.28346,1.31361 1.4982,0.24781 4.64463,0.14347 6.32157,-0.20929 3.8499,-0.80985 6.80525,-2.41222 9.55859,-5.18263 2.86164,-2.8794 4.51801,-6.00379 5.19555,-9.80147 0.29852,-1.67325 0.48474,-4.80591 0.28577,-4.80591 -0.0395,0 -0.69208,0.21573 -1.45004,0.47956 -0.75795,0.26385 -2.51266,0.67311 -3.8995,0.90951 -5.08404,0.8666 -9.88614,-0.0825 -14.71073,-2.9068 -0.69482,-0.40675 -1.03768,-0.58134 -1.16892,-0.56276 z m -16.396417,0.0196 c -0.14364,1e-5 -0.50769,0.21003 -1.28054,0.67541 -3.48849,2.10065 -8.66486,3.35977 -12.45712,3.03031 -2.28092,-0.19817 -4.97176,-0.74471 -6.20841,-1.26142 -0.50034,-0.20906 -1.01086,-0.31741 -1.13481,-0.24082 -0.3255,0.20117 -0.26156,2.45571 0.13229,4.66329 0.67896,3.80568 2.35544,6.9717 5.19607,9.81232 2.69032,2.69033 5.77238,4.38518 9.41544,5.17746 1.84284,0.40079 5.13546,0.45974 6.71587,0.12041 2.02559,-0.43493 4.034377,-1.07939 4.034377,-1.2945 0,-0.11552 -0.378827,-0.70657 -0.841807,-1.3131 -2.25638,-2.95602 -3.7432,-6.77839 -4.22455,-10.8598 -0.22783,-1.93184 -0.2066,-2.83084 0.11886,-4.97075 0.21855,-1.43694 0.47016,-2.86755 0.55862,-3.17914 0.066,-0.23238 0.0874,-0.35967 -0.0243,-0.35967 z m 8.174177,24.28121 c -0.21084,0.0163 -0.45406,0.15661 -0.91674,0.43511 -3.483037,2.09664 -6.828297,3.17994 -10.726477,3.47421 l -2.32078,0.17518 1.34875,0.45837 c 4.75727,1.61706 11.194797,2.27815 16.707507,1.71566 2.89096,-0.29498 6.53842,-1.02674 8.5819,-1.72134 l 1.33222,-0.45269 -2.30942,-0.17415 c -3.82299,-0.28859 -7.98157,-1.65365 -10.97452,-3.60236 -0.33299,-0.21681 -0.5116,-0.32434 -0.72244,-0.30799 z"
     style="stroke-width:0.31805316" />
  <path
     id="path63"
     d="m 0.7727262,153.85404 -0.4415578,-0.9567 h 7.7640589 v -4.30519 l 1.9870107,-2.24459 0.220779,-0.0368 v 6.58658 h 3.753242 q 0.809523,-0.33117 1.25108,-2.1342 l 2.906923,3.0909 h -7.911245 v 21.37876 l -2.2077897,0.36797 v -21.74673 z m 0.2575755,5.74026 3.9004277,-2.50216 0.1839824,0.0368 Q 4.7099504,168.2415 0.5887438,173.76097 L 0,173.31942 q 2.5021612,-5.70346 2.7965331,-13.02596 0.036797,-1.14069 -1.7662314,-0.25758 z m 11.9220623,-1.72944 0.883116,-0.44156 q 3.86363,6.84415 4.047613,15.89609 l -2.428568,0.0736 q -0.07359,-9.01514 -2.502161,-15.52812 z m 0.147186,-9.71427 v -5.2987 l 1.324674,-0.29437 v 5.2251 z m 3.23809,0 v -5.2987 l 1.324674,-0.29437 v 5.2987 z" />
  <path
     id="path65"
     d="m 26.493472,148.37137 4.231595,-1.36147 0.441558,0.11039 q -0.588744,3.42207 -1.655842,6.36579 h 8.941546 q 0.883116,-0.33117 1.36147,-2.1342 l 3.127702,3.09091 h -5.004323 q 0,15.89608 -12.290027,20.67962 l -0.331168,-0.62554 Q 35.471814,169.49255 35.619,154.44279 h -6.439386 q -2.023807,5.2619 -5.482676,9.01514 l -0.515151,-0.51515 q 3.863631,-6.51298 4.967526,-13.20994 0.331168,-1.32468 -1.655842,-0.91991 z" />
  <path
     id="path67"
     d="m 51.441489,150.32158 q -2.72294,-0.0368 -3.863631,1.72944 l -0.515151,-0.0736 0.699134,-2.61255 h 17.515128 v 1.14069 q -1.913417,8.90475 -9.383105,14.79219 2.870127,3.82684 4.93073,8.13203 l -2.207789,1.06709 q -3.422074,-8.3528 -8.831157,-14.71859 l 0.62554,-0.77273 q 2.72294,2.64935 4.967526,5.59307 5.372287,-5.92424 7.064925,-13.28353 0.220779,-1.0303 -0.588743,-0.99351 z" />
  <path
     id="path69"
     d="m 81.872185,150.1744 3.900429,-2.50217 0.183982,0.0368 v 12.8052 q 0,10.96535 -10.082238,14.46102 l -0.331169,-0.62554 q 8.095227,-3.56926 8.095227,-13.90907 v -9.56709 q -0.03678,-1.14069 -1.766231,-0.25758 z m -11.333318,0.0736 3.826834,-2.50216 0.183983,0.0368 v 15.9697 l -2.244586,0.95671 v -13.76189 q -0.03678,-1.14069 -1.766231,-0.25757 z" />
  <path
     id="path71"
     d="m 103.7293,153.63327 3.71644,-1.83983 0.14719,0.0368 q -1.50866,17.40474 -11.627689,23.10819 l -0.367965,-0.62554 q 7.911244,-6.10821 9.603884,-19.57573 0.18398,-1.14069 -1.32468,-0.77273 z m -11.186134,-0.95671 0.73593,-0.14719 q 1.692639,3.71645 2.502161,10.04544 l -1.655842,0.29437 Q 93.75745,156.393 92.543166,152.67656 Z m 4.746747,0 0.73593,-0.14719 q 1.729439,3.71645 2.538957,10.04544 l -1.655838,0.29437 Q 98.504203,156.393 97.289913,152.67656 Z" />
  <path
     id="path73"
     d="m 116.82885,148.37137 4.23159,-1.36147 0.44156,0.11039 q -0.40476,2.28138 -1.0671,4.37878 h 10.08224 v 0.9935 q -0.36797,16.08007 -14.6818,22.48266 l -0.40476,-0.62554 q 12.14284,-6.84415 12.43721,-21.19478 0.0368,-0.73593 -0.77272,-0.69913 h -6.99134 q -2.35497,6.54977 -7.39609,11.00215 l -0.44156,-0.66234 q 5.11471,-6.36579 6.21861,-13.06275 0.33117,-1.32468 -1.65584,-0.91991 z" />
  <path
     id="path75"
     d="m 157.01061,163.01637 h -6.36579 q -0.0368,1.58225 -0.22078,3.01731 2.24459,0.73593 3.90043,1.87662 1.72943,1.25108 1.72943,2.42857 0,1.25108 -1.14069,1.25108 -0.58874,0 -0.9935,-0.88311 -0.84632,-1.80303 -3.67965,-3.67965 -1.14069,5.59306 -6.18181,8.61038 l -0.58875,-0.73593 q 3.60606,-3.01732 4.59956,-7.3961 0.44156,-2.0606 0.47836,-4.48917 h -3.82684 l -0.40476,-0.91991 h 12.51081 q -0.84632,-6.2922 -0.84632,-20.16448 3.38528,0.18399 3.38528,0.95671 0,0.47836 -1.39827,0.91991 0,14.01947 0.69913,18.17747 h 7.54328 l 1.47186,-2.02381 q 0.91991,0.80952 2.06061,2.24459 l -0.40477,0.69913 h -10.4502 q 0.73593,3.67965 2.31818,6.14501 1.83982,-2.17099 3.27489,-5.44588 2.53896,1.21429 2.53896,1.98701 0,0.40477 -1.28788,0.40477 -1.69264,2.72294 -3.34848,4.41557 2.20779,2.35498 3.60605,2.35498 1.03031,0 1.69264,-4.93073 l 0.95671,0.55195 q -0.33117,2.72294 -0.33117,3.79004 0,1.65584 0.95671,1.95021 -0.44156,1.58225 -1.72943,1.58225 -2.75974,0 -6.54978,-3.86363 -3.01731,2.50216 -8.64717,3.93722 l -0.47836,-0.84632 q 4.74675,-1.50865 7.80086,-4.30519 l 0.14718,-0.14718 q -1.91341,-2.87013 -2.79653,-7.46969 z m 3.79004,-7.02813 0.29437,-0.36796 q 2.50216,-3.31169 4.93073,-8.09523 2.46537,1.17749 2.46537,1.80303 0,0.40476 -1.25109,0.47835 -2.53895,3.31168 -5.29869,6.14501 2.24459,-0.0736 4.34199,-0.29437 -0.51515,-0.84632 -1.25108,-1.65584 l 0.44155,-0.58874 q 3.60606,1.80302 3.60606,4.1948 0,1.28787 -1.17749,1.28787 -0.88311,0 -0.91991,-0.9935 -0.0368,-0.62554 -0.25758,-1.36147 -3.79003,0.84632 -6.47618,1.10389 -0.22078,1.0671 -0.55195,1.0671 -0.58874,0 -1.10389,-2.68614 1.50866,0 2.20779,-0.0368 z m -21.12118,1.95021 q -1.65585,5.37229 -4.41558,10.15584 l -0.80953,-0.55195 q 3.60606,-7.28571 5.18831,-16.33764 h -4.56277 l -0.33116,-0.95671 h 4.93073 v -8.31601 q 3.64285,0.22078 3.64285,1.0671 0,0.44156 -1.61905,1.0303 v 6.21861 h 1.28788 l 1.47186,-1.95021 q 1.0671,1.10389 1.98701,2.28138 l -0.33117,0.62554 h -4.41558 v 3.34848 q 3.97402,2.31818 3.97402,4.85713 0,1.36147 -1.21428,1.36147 -0.69913,0 -0.99351,-1.25108 -0.44155,-1.98701 -1.76623,-3.75324 v 19.98049 h -2.0238 z m 7.94804,-1.17748 q 3.16449,-4.30519 5.1515,-8.75757 2.39178,1.0671 2.39178,1.76623 0,0.40477 -1.1039,0.40477 -2.39177,3.45887 -5.33549,6.54977 0.58875,0 3.64285,-0.25757 l 0.66234,-0.0368 q -0.36796,-0.77273 -1.36147,-1.87662 l 0.44156,-0.58875 q 3.60605,1.80303 3.60605,4.2316 0,1.21428 -1.14069,1.21428 -0.84632,0 -1.0303,-1.28787 -0.0368,-0.33117 -0.18398,-0.80953 -2.94372,0.77273 -5.77705,1.21429 -0.33117,0.91991 -0.66234,0.91991 -0.51515,0 -1.14069,-2.64935 0.69914,0 1.83983,-0.0368 z m 13.46751,-7.98484 q 1.17749,-2.87013 1.83983,-6.03462 2.90692,0.88311 2.90692,1.69263 0,0.44156 -1.28788,0.55195 -1.25108,2.42857 -2.72294,4.34199 1.25108,0.9935 1.25108,2.0606 0,1.21428 -1.10389,1.21428 -0.80953,0 -1.0303,-0.9935 -0.40477,-1.76623 -2.35498,-3.23809 l 0.44156,-0.55195 q 1.10389,0.40476 2.0606,0.95671 z m -12.62119,0.0736 q 1.14069,-2.75973 1.83982,-6.10821 2.94372,0.88311 2.94372,1.58224 0,0.44156 -1.25108,0.62554 -1.17749,2.171 -2.87013,4.45238 1.32468,1.0671 1.32468,2.1342 0,1.21428 -1.21429,1.21428 -0.66233,0 -0.91991,-0.91991 -0.47835,-1.72944 -2.53896,-3.42208 l 0.44156,-0.58874 q 1.47186,0.51515 2.24459,1.0303 z m 13.20993,9.08873 q 3.64286,0.58875 3.64286,2.28139 0,1.14069 -1.14069,1.14069 -0.73593,0 -1.03031,-0.80952 -0.36796,-1.17749 -1.72943,-1.95022 z" />
  <path
     id="path77"
     d="m 195.9413,158.82157 h 5.04111 l 1.36147,-1.50866 q 2.31818,1.65585 2.31818,2.20779 0,0.18399 -0.25757,0.33117 l -0.99351,0.66234 v 6.84415 h 0.99351 l 1.39826,-2.20779 q 1.03031,1.17748 1.80303,2.46536 l -0.40476,0.69913 h -3.79004 v 4.12121 q 0,3.05411 -3.45887,3.01731 0,-1.0671 -1.14069,-1.50865 -0.77273,-0.29437 -3.60605,-0.84632 v -1.0303 q 2.98051,0.33116 4.78354,0.33116 1.28788,0 1.28788,-1.10389 v -2.98052 h -12.40042 v 7.43289 h -2.17099 v -7.43289 h -3.79004 l -0.36797,-0.9567 h 4.15801 v -9.71428 q 0.84632,0.33117 2.57575,1.17749 h 4.63636 v -3.23809 h -10.30302 l -0.36796,-0.95671 h 6.80735 v -3.31168 h -4.2316 l -0.36796,-0.95671 h 4.59956 v -3.05411 h -5.59307 l -0.29437,-0.91991 h 5.88744 v -4.48917 q 3.56926,0 3.56926,0.77272 0,0.47836 -1.50866,0.99351 v 2.72294 h 5.59307 v -4.48917 q 3.49566,0.0368 3.49566,0.84632 0,0.44155 -1.47186,0.9567 v 2.68615 h 2.72294 l 1.61905,-2.0974 q 1.32467,1.32467 2.1342,2.35497 l -0.36797,0.66234 h -6.10822 v 3.05411 h 2.39178 l 1.43506,-1.80303 q 1.0671,0.95671 2.0238,2.02381 l -0.36796,0.73593 h -5.48268 v 3.31168 h 3.75325 l 1.54545,-1.95021 q 0.29437,0.29437 0.69913,0.66233 0.62554,0.62554 1.43506,1.58225 l -0.33116,0.66234 H 195.9413 Z m 5.33549,5.07792 h -5.33549 v 3.45887 h 5.33549 z m 0,-0.95671 v -3.2013 h -5.33549 v 3.2013 z m -7.3593,-3.2013 h -5.04112 v 3.2013 h 5.04112 z m 0,7.61688 v -3.45887 h -5.04112 v 3.45887 z m 3.79004,-20.05409 h -5.59307 v 3.05411 h 5.59307 z m 0,4.01082 h -5.59307 v 3.31168 h 5.59307 z m -19.9805,6.2922 q -1.91341,6.03462 -4.70995,10.78137 l -0.88311,-0.62554 q 3.93722,-7.69047 5.40908,-16.44803 h -4.70995 l -0.29437,-0.95671 h 5.1883 v -8.4264 q 3.79004,0.14719 3.79004,1.0671 0,0.51515 -1.69264,1.0303 v 6.329 h 1.43507 l 1.58225,-2.31818 q 0.9567,1.10389 1.91341,2.46536 l -0.36796,0.80953 h -4.56277 v 4.1948 q 2.20779,1.58225 3.49567,3.38527 1.14069,1.61905 1.14069,2.68615 0,1.21428 -1.17749,1.21428 -0.80952,0 -1.10389,-1.28788 -0.51515,-2.28138 -2.35498,-4.70995 v 18.95019 h -2.0974 z" />
</svg>
