<?xml version="1.0" encoding="UTF-8" standalone="no"?>
<svg
   xmlns:dc="http://purl.org/dc/elements/1.1/"
   xmlns:cc="http://creativecommons.org/ns#"
   xmlns:rdf="http://www.w3.org/1999/02/22-rdf-syntax-ns#"
   xmlns:svg="http://www.w3.org/2000/svg"
   xmlns="http://www.w3.org/2000/svg"
   xmlns:sodipodi="http://sodipodi.sourceforge.net/DTD/sodipodi-0.dtd"
   xmlns:inkscape="http://www.inkscape.org/namespaces/inkscape"
   id="svg8"
   version="1.1"
   viewBox="0 0 262.30962 48.01974"
   height="181.49193"
   width="991.40643"
   sodipodi:docname="logo_h.svg"
   inkscape:version="0.92.4 5da689c313, 2019-01-14">
  <sodipodi:namedview
     pagecolor="#ffffff"
     bordercolor="#666666"
     borderopacity="1"
     objecttolerance="10"
     gridtolerance="10"
     guidetolerance="10"
     inkscape:pageopacity="0"
     inkscape:pageshadow="2"
     inkscape:window-width="1888"
     inkscape:window-height="1025"
     id="namedview77"
     showgrid="false"
     inkscape:zoom="1.7318831"
     inkscape:cx="409.38099"
     inkscape:cy="90.745964"
     inkscape:window-x="14"
     inkscape:window-y="14"
     inkscape:window-maximized="0"
     inkscape:current-layer="svg8" />
  <defs
     id="defs2" />
  <metadata
     id="metadata5">
    <rdf:RDF>
      <cc:Work
         rdf:about="">
        <dc:format>image/svg+xml</dc:format>
        <dc:type
           rdf:resource="http://purl.org/dc/dcmitype/StillImage" />
        <dc:title />
      </cc:Work>
    </rdf:RDF>
  </metadata>
  <path
     inkscape:connector-curvature="0"
     style="stroke-width:0.11562528;fill:#ffffff"
     d="m 22.817368,-0.2583 a 24.046706,24.046706 0 0 0 -0.925237,0.0558 l -0.0898,2.30022 A 21.756544,21.756544 0 0 0 20.237419,2.32315 L 19.54908,0.10559 a 24.046706,24.046706 0 0 0 -0.905885,0.20327 l 0.224501,2.29177 a 21.756544,21.756544 0 0 0 -1.529224,0.4009 l -0.967501,-2.0682 a 24.046706,24.046706 0 0 0 -0.882026,0.29288 l 0.537855,2.254 A 21.756544,21.756544 0 0 0 14.579678,4.1043 L 13.32042,2.15765 a 24.046706,24.046706 0 0 0 -0.824914,0.4272 l 0.831487,2.13828 A 21.756544,21.756544 0 0 0 11.980569,5.54861 L 10.475205,3.79996 a 24.046706,24.046706 0 0 0 -0.75747,0.54162 l 1.120989,2.01635 A 21.756544,21.756544 0 0 0 9.605204,7.33727 L 7.886802,5.81932 A 24.046706,24.046706 0 0 0 7.187382,6.43364 L 8.581528,8.29068 A 21.756544,21.756544 0 0 0 7.510697,9.44249 L 5.571745,8.15279 a 24.046706,24.046706 0 0 0 -0.57543,0.73305 l 1.616953,1.63254 A 21.756544,21.756544 0 0 0 5.697803,11.79831 L 3.633168,10.80018 A 24.046706,24.046706 0 0 0 3.144529,11.5971 l 1.834689,1.40505 a 21.756544,21.756544 0 0 0 -0.731732,1.387 L 2.057731,13.67884 a 24.046706,24.046706 0 0 0 -0.393202,0.84764 l 2.010155,1.14278 A 21.756544,21.756544 0 0 0 3.159936,17.15001 L 0.867044,16.73972 a 24.046706,24.046706 0 0 0 -0.231637,0.90701 l 2.136962,0.8546 a 21.756544,21.756544 0 0 0 -0.343416,1.52903 l -2.278239,-0.0922 a 24.046706,24.046706 0 0 0 -0.14015,0.92824 l 2.246867,0.55908 a 21.756544,21.756544 0 0 0 -0.122677,1.55703 l -2.29007,0.22074 a 24.046706,24.046706 0 0 0 -0.0274,0.548 24.046706,24.046706 0 0 0 0.0139,0.39058 l 2.308288,0.24835 a 21.756544,21.756544 0 0 0 0.0806,1.56003 l -2.218498,0.52565 a 24.046706,24.046706 0 0 0 0.11366,0.935 l 2.315434,-0.068 a 21.756544,21.756544 0 0 0 0.312605,1.52302 l -2.158004,0.83507 a 24.046706,24.046706 0 0 0 0.249862,0.90869 l 2.262456,-0.37873 a 21.756544,21.756544 0 0 0 0.533536,1.46234 l -2.023305,1.1208 a 24.046706,24.046706 0 0 0 0.385874,0.8623 L 4.19472,32.98933 a 21.756544,21.756544 0 0 0 0.69585,1.38795 l -1.832245,1.37103 a 24.046706,24.046706 0 0 0 0.470414,0.82004 l 2.100328,-0.98649 a 21.756544,21.756544 0 0 0 0.894048,1.26378 l -1.653398,1.63272 a 24.046706,24.046706 0 0 0 0.604172,0.72855 L 7.40007,37.95648 a 21.756544,21.756544 0 0 0 1.056362,1.13395 l -1.402035,1.82455 a 24.046706,24.046706 0 0 0 0.694349,0.647 l 1.747518,-1.50911 a 21.756544,21.756544 0 0 0 1.188247,0.98741 l -1.13846,1.99494 a 24.046706,24.046706 0 0 0 0.755969,0.57224 l 1.534854,-1.74339 a 21.756544,21.756544 0 0 0 1.322194,0.79711 l -0.869815,2.16495 a 24.046706,24.046706 0 0 0 0.852343,0.41763 l 1.270153,-1.91641 a 21.756544,21.756544 0 0 0 1.410303,0.63104 l -0.556269,2.22112 a 24.046706,24.046706 0 0 0 0.893863,0.32633 l 1.003199,-2.08361 a 21.756544,21.756544 0 0 0 1.48,0.4272 l -0.250426,2.29195 a 24.046706,24.046706 0 0 0 0.926364,0.21248 l 0.707872,-2.19389 a 21.756544,21.756544 0 0 0 1.529972,0.20008 l 0.06463,2.32576 a 24.046706,24.046706 0 0 0 0.949656,0.0475 l 0.400341,-2.2572 a 21.756544,21.756544 0 0 0 0.892733,0.0317 21.756544,21.756544 0 0 0 0.649073,-0.0325 l 0.3793,2.28613 a 24.046706,24.046706 0 0 0 0.94778,-0.0571 l 0.08961,-2.29984 a 21.756544,21.756544 0 0 0 1.527529,-0.22018 l 0.689088,2.22 a 24.046706,24.046706 0 0 0 0.92768,-0.20834 l -0.224501,-2.2912 a 21.756544,21.756544 0 0 0 1.495029,-0.38756 l 0.96713,2.06726 a 24.046706,24.046706 0 0 0 0.902502,-0.30002 l -0.53767,-2.25325 a 21.756544,21.756544 0 0 0 1.416689,-0.60662 l 1.25832,1.94516 a 24.046706,24.046706 0 0 0 0.845393,-0.4319 L 34.366012,42.8007 a 21.756544,21.756544 0 0 0 1.318435,-0.80858 l 1.508745,1.75278 a 24.046706,24.046706 0 0 0 0.772498,-0.55232 l -1.120051,-2.01466 a 21.756544,21.756544 0 0 0 1.215488,-0.95549 l 1.716898,1.51645 a 24.046706,24.046706 0 0 0 0.712005,-0.62559 l -1.393015,-1.85554 a 21.756544,21.756544 0 0 0 1.058242,-1.12719 l 1.936698,1.28782 a 24.046706,24.046706 0 0 0 0.591775,-0.73869 l -1.615263,-1.63086 a 21.756544,21.756544 0 0 0 0.902315,-1.26188 l 2.071211,1.00113 a 24.046706,24.046706 0 0 0 0.495023,-0.80688 l -1.832619,-1.40354 a 21.756544,21.756544 0 0 0 0.732482,-1.36672 l 2.186749,0.70938 a 24.046706,24.046706 0 0 0 0.405973,-0.85196 L 44.013437,31.922 a 21.756544,21.756544 0 0 0 0.519635,-1.46422 l 2.299467,0.41142 a 24.046706,24.046706 0 0 0 0.234077,-0.91226 l -2.133955,-0.85328 a 21.756544,21.756544 0 0 0 0.34135,-1.52114 l 2.286504,0.0928 a 24.046706,24.046706 0 0 0 0.140709,-0.93163 l -2.244047,-0.55833 a 21.756544,21.756544 0 0 0 0.132071,-1.55345 l 2.28838,-0.22056 a 24.046706,24.046706 0 0 0 0.03308,-0.66015 24.046706,24.046706 0 0 0 -0.01,-0.27842 l -2.306604,-0.24836 a 21.756544,21.756544 0 0 0 -0.07815,-1.56228 l 2.223382,-0.52696 a 24.046706,24.046706 0 0 0 -0.113097,-0.93219 l -2.31224,0.0678 a 21.756544,21.756544 0 0 0 -0.303403,-1.53241 l 2.155375,-0.8343 a 24.046706,24.046706 0 0 0 -0.238025,-0.90551 l -2.264899,0.3793 A 21.756544,21.756544 0 0 0 44.130449,15.902 l 2.029692,-1.12418 a 24.046706,24.046706 0 0 0 -0.381929,-0.85404 l -2.198393,0.68627 a 21.756544,21.756544 0 0 0 -0.695475,-1.40824 l 1.830177,-1.36953 a 24.046706,24.046706 0 0 0 -0.464965,-0.81026 l -2.097699,0.98517 A 21.756544,21.756544 0 0 0 41.253301,10.7205 L 42.905008,9.08964 A 24.046706,24.046706 0 0 0 42.316429,8.36692 L 40.392691,9.61547 A 21.756544,21.756544 0 0 0 39.318479,8.46237 L 40.72352,6.63406 A 24.046706,24.046706 0 0 0 40.041383,5.99833 L 38.295555,7.50594 A 21.756544,21.756544 0 0 0 37.088712,6.49467 L 38.226421,4.50123 A 24.046706,24.046706 0 0 0 37.486233,3.93839 l -1.534669,1.7432 A 21.756544,21.756544 0 0 0 34.605325,4.86231 L 35.474577,2.69848 A 24.046706,24.046706 0 0 0 34.642523,2.28593 L 33.373308,4.20064 A 21.756544,21.756544 0 0 0 31.93088,3.55533 L 32.487527,1.33251 A 24.046706,24.046706 0 0 0 31.613953,1.01352 L 30.611507,3.09563 A 21.756544,21.756544 0 0 0 29.097127,2.65584 L 29.347363,0.36407 A 24.046706,24.046706 0 0 0 28.443357,0.15385 L 27.734918,2.34999 A 21.756544,21.756544 0 0 0 26.168126,2.14203 l -0.06463,-2.32559 a 24.046706,24.046706 0 0 0 -0.926739,-0.0462 L 24.77642,2.02706 a 21.756544,21.756544 0 0 0 -0.912462,-0.0324 21.756544,21.756544 0 0 0 -0.667483,0.0333 z m 1.057303,5.6647 c 3.014098,0.003 5.538612,0.59539 8.201618,1.92486 3.549593,1.77208 6.400811,4.6259 8.156716,8.16423 1.322245,2.66447 1.901402,5.14915 1.906456,8.17907 0.0083,4.95189 -1.837234,9.42282 -5.338935,12.93412 -3.078885,3.08733 -7.053232,4.91922 -11.505032,5.30287 -1.242197,0.10705 -1.720228,0.10575 -3.019177,-0.009 -2.27286,-0.20017 -4.507448,-0.84792 -6.651735,-1.92787 -3.908557,-1.96851 -6.859261,-5.10201 -8.565136,-9.09586 -3.788877,-8.87063 -0.0196,-19.2222 8.565136,-23.52238 2.701214,-1.35306 5.24071,-1.95339 8.250089,-1.9504 z m -4.37049,3.62654 c -0.247921,0.008 -1.746116,0.60112 -2.600048,1.03664 -2.110757,1.07653 -4.001602,2.68515 -5.414267,4.60607 -0.154668,0.21031 -0.260368,0.3823 -0.234833,0.3823 0.02556,0 0.34543,-0.20582 0.710693,-0.45745 v -2e-4 c 1.060558,-0.7306 2.692205,-1.27881 3.817229,-1.28254 l 0.479242,-0.002 0.444487,-0.93952 c 0.619054,-1.30845 1.584888,-2.46875 2.610386,-3.13602 0.140217,-0.0912 0.238948,-0.18187 0.219425,-0.20139 -0.0048,-0.005 -0.01578,-0.007 -0.03232,-0.006 z m 8.733463,0.002 c -0.01371,-9e-5 -0.02283,0.002 -0.02704,0.006 -0.01829,0.0183 0.08146,0.10748 0.22168,0.1982 1.143303,0.7397 2.254509,2.1516 2.86569,3.6412 l 0.178662,0.43547 0.484502,0.002 c 1.132546,0.004 2.776495,0.55595 3.790927,1.27335 0.349431,0.2471 0.666548,0.45319 0.70468,0.45801 0.03812,0.005 -0.05738,-0.1664 -0.212101,-0.38061 -1.445961,-2.00184 -3.452208,-3.67137 -5.705456,-4.74773 -0.870713,-0.41592 -2.09614,-0.88411 -2.301533,-0.8854 z m -4.433049,1.18918 c -1.355963,0.0163 -2.721052,0.44388 -3.907776,1.29664 -0.616179,0.44279 -0.960617,0.78626 -1.471544,1.46685 l -0.338532,0.45088 0.671052,0.24553 c 2.106311,0.77044 3.64996,2.06211 4.53243,3.79243 0.498007,0.97649 0.618074,1.02254 0.940073,0.35977 0.557853,-1.14823 1.511733,-2.27955 2.546323,-3.02012 0.619146,-0.44319 1.870715,-1.05805 2.486204,-1.22131 l 0.392261,-0.10407 -0.163067,-0.29308 c -0.0897,-0.16115 -0.494993,-0.62317 -0.900625,-1.02686 -1.315035,-1.30876 -3.043414,-1.96765 -4.786799,-1.94666 z m -6.332735,4.62448 -0.111403,0.40241 c -0.293058,1.05873 -0.253446,2.64412 0.09356,3.75053 0.266112,0.8485 0.843549,1.83437 1.433783,2.44769 0.409216,0.42524 0.498346,0.4843 0.452942,0.30021 -0.203498,-0.82505 -0.213605,-0.79884 0.367838,-0.96787 0.292131,-0.0849 0.655879,-0.15979 0.808195,-0.16627 0.245747,-0.0104 0.28819,0.0277 0.377046,0.3376 0.08618,0.30065 0.19556,0.40533 0.784336,0.75202 0.794013,0.46753 0.878038,0.49094 0.680073,0.1888 -0.08012,-0.12227 -0.266694,-0.26442 -0.414619,-0.31598 -0.147924,-0.0515 -0.269024,-0.12063 -0.269024,-0.1533 0,-0.13765 0.292215,-1.05017 0.336279,-1.05017 0.02647,0 0.274811,0.066 0.551946,0.14654 0.493117,0.14335 0.502813,0.15271 0.452943,0.43547 -0.03032,0.17189 0.0022,0.3818 0.07984,0.51813 0.12035,0.21075 0.131147,0.15862 0.134136,-0.64757 0.0033,-0.85711 -0.0029,-0.88242 -0.272969,-1.14128 l -0.276349,-0.2647 0.421944,-0.42852 c 0.417741,-0.42413 0.420787,-0.43139 0.281984,-0.69979 -0.215325,-0.4164 -0.861842,-1.22061 -1.332148,-1.65716 -0.983578,-0.91296 -2.576202,-1.61738 -3.911349,-1.73024 z m 12.371656,0.0258 c -0.666588,0 -1.801577,0.31983 -2.656036,0.74864 -0.93234,0.46791 -2.027907,1.45982 -2.58239,2.33779 l -0.380617,0.60248 0.422323,0.4289 0.422321,0.42871 -0.276349,0.2647 c -0.270184,0.25886 -0.276335,0.28417 -0.273157,1.14128 0.0029,0.80619 0.01378,0.85832 0.134136,0.64757 0.07784,-0.13633 0.110156,-0.34624 0.07984,-0.51813 -0.04987,-0.28276 -0.04018,-0.29212 0.452939,-0.43547 0.277137,-0.0806 0.525661,-0.14654 0.552135,-0.14654 0.0823,0 0.346206,1.00957 0.288374,1.10314 -0.0301,0.0487 -0.114275,0.0887 -0.186925,0.0887 -0.153298,0 -0.498781,0.32112 -0.498781,0.46365 0,0.0534 0.03094,0.0801 0.06876,0.0592 0.03781,-0.0208 0.364442,-0.21163 0.725722,-0.42383 0.567345,-0.33323 0.66806,-0.43181 0.738874,-0.72365 0.07297,-0.30077 0.112339,-0.33662 0.358444,-0.32614 0.152073,0.007 0.515501,0.0813 0.807632,0.16627 0.5798,0.16855 0.578982,0.16647 0.362581,0.96788 -0.05613,0.20787 -0.02556,0.19507 0.32895,-0.13752 0.787701,-0.73905 1.511661,-2.1138 1.744701,-3.313 0.128112,-0.65924 0.07459,-2.56728 -0.08642,-3.08098 -0.104817,-0.33443 -0.119617,-0.34361 -0.54706,-0.34361 z m -13.898058,0.16945 -0.253806,0.0507 c -0.531158,0.10621 -1.603418,0.62439 -2.192198,1.05919 -1.098351,0.81109 -2.041252,2.15592 -2.477185,3.53316 -0.108968,0.34427 -0.194141,0.9615 -0.227504,1.65002 -0.06148,1.26868 0.106725,2.14333 0.609433,3.1706 0.302815,0.61878 0.874977,1.46033 0.990048,1.45614 0.03732,-7.6e-4 0.17097,-0.17071 0.297017,-0.37629 0.313227,-0.51092 1.377511,-1.57076 2.004517,-1.99607 1.18375,-0.80295 2.415542,-1.25669 3.674263,-1.35376 0.40586,-0.0313 0.737933,-0.0921 0.737933,-0.13507 0,-0.043 -0.03614,-0.0781 -0.08022,-0.0781 -0.04411,0 -0.360475,-0.27741 -0.702989,-0.61657 -1.477444,-1.46298 -2.314627,-3.44795 -2.362404,-5.60082 z m 15.976028,0.0141 c -0.08544,1.9e-4 -0.121812,0.21911 -0.133194,0.802 -0.02752,1.40802 -0.425121,2.8104 -1.145412,4.03909 -0.168032,0.28664 -0.678018,0.89936 -1.133203,1.36165 l -0.827543,0.84069 0.266014,0.0532 c 0.14638,0.0292 0.378242,0.0532 0.515126,0.0532 0.802451,0 2.524543,0.6595 3.562107,1.3641 0.651901,0.44269 1.714447,1.49619 2.032887,2.01559 0.126044,0.20559 0.258125,0.37495 0.293632,0.3763 0.03552,7.5e-4 0.212824,-0.19167 0.393954,-0.4289 1.105931,-1.44839 1.532786,-3.72272 1.046969,-5.57751 -0.406268,-1.5511 -1.402635,-3.00193 -2.675947,-3.89614 -0.571941,-0.40166 -1.88962,-1.00373 -2.19539,-1.00319 z m -12.553506,7.3397 c -0.113854,7.6e-4 -0.293836,0.025 -0.573551,0.072 -2.065832,0.34711 -3.936855,1.73847 -4.88693,3.63405 -0.455665,0.90914 -0.4558,0.91921 -0.0066,1.20459 1.404641,0.89234 3.160729,1.21684 4.850484,0.8963 0.802229,-0.15218 1.692293,-0.48369 2.126819,-0.79241 0.141792,-0.10074 0.358883,-0.41178 0.482436,-0.69116 0.247193,-0.55894 0.411936,-0.61648 0.180728,-0.0631 -0.07924,0.18965 -0.132751,0.35626 -0.118733,0.37028 0.01403,0.0141 0.125749,-0.0501 0.248171,-0.1424 0.214577,-0.16186 0.217888,-0.18183 0.09487,-0.55458 -0.117722,-0.3567 -0.113999,-0.39637 0.04584,-0.51324 0.0953,-0.0696 0.22236,-0.12682 0.282552,-0.12682 0.06019,0 0.17704,-0.10314 0.259626,-0.22919 0.08259,-0.12605 0.133088,-0.229 0.112156,-0.229 -0.02094,0 -0.367864,0.18546 -0.770998,0.41217 -0.65614,0.36898 -0.739361,0.44631 -0.794104,0.73812 -0.03363,0.17928 -0.117234,0.34742 -0.185612,0.37366 -0.06837,0.0262 -0.453205,-0.0411 -0.855161,-0.14953 L 19.12918,26.41013 19.345036,25.6256 c 0.118732,-0.43155 0.228721,-0.79757 0.244412,-0.81326 0.0157,-0.0157 0.199354,0.0149 0.408042,0.0678 0.35992,0.0913 0.418609,0.0748 1.142782,-0.3237 0.714005,-0.39293 0.743158,-0.42036 0.448624,-0.42194 -0.190063,-7.3e-4 -0.391806,0.0707 -0.508928,0.18072 l -0.194065,0.18223 -0.403344,-0.41085 -0.403346,-0.41105 0.299645,-0.30904 0.299645,-0.30904 -0.41199,-0.24159 c -0.226598,-0.1328 -0.473512,-0.24141 -0.548565,-0.24141 -0.07505,0 -0.153196,-0.0504 -0.173776,-0.11216 -0.01469,-0.0441 -0.06236,-0.0658 -0.176215,-0.0646 z m 9.107688,0.01 c -0.127323,-4e-5 -0.213438,0.0212 -0.242343,0.068 -0.03363,0.0544 -0.123422,0.0988 -0.1997,0.0988 -0.07628,0 -0.324035,0.10861 -0.550633,0.2414 l -0.412176,0.2416 0.299645,0.30904 0.299645,0.30922 -0.40316,0.41086 -0.403345,0.41087 -0.194065,-0.18223 C 26.553185,24.2059 26.349235,24.13302 26.160423,24.13335 l -0.314863,7.3e-4 0.229198,0.12136 c 0.126043,0.0668 0.467648,0.25679 0.759161,0.42232 0.490121,0.27831 0.558961,0.29371 0.913774,0.20364 0.211031,-0.0536 0.396488,-0.0846 0.412175,-0.069 0.0157,0.0157 0.125683,0.38172 0.244412,0.81327 l 0.215859,0.78452 -0.727979,0.19651 c -0.400346,0.10802 -0.773924,0.18094 -0.830364,0.16213 -0.05644,-0.0189 -0.147066,-0.18951 -0.201201,-0.37949 -0.08584,-0.30125 -0.189179,-0.39668 -0.808759,-0.74583 -0.390733,-0.22018 -0.710503,-0.37926 -0.710503,-0.35355 0,0.1573 0.21715,0.40799 0.31937,0.36877 0.165764,-0.0636 0.327216,0.15294 0.639868,0.85761 0.324563,0.73151 0.64238,1.02943 1.419692,1.33139 1.257706,0.48859 2.56477,0.61776 3.734004,0.36897 v -1.9e-4 c 0.343615,-0.0731 0.865474,-0.21651 1.159691,-0.31862 0.542665,-0.18835 1.482828,-0.68511 1.573179,-0.8313 0.06737,-0.109 -0.198035,-0.75629 -0.582756,-1.42139 C 33.164904,24.88546 31.949573,23.69331 31.177543,23.26458 30.3552,22.8079 29.027407,22.40775 28.475668,22.40753 Z m -8.209506,0.003 c -0.04562,-7.3e-4 -0.08569,0.007 -0.121736,0.0203 -0.126425,0.0485 -0.07767,0.10682 0.240654,0.28762 0.21956,0.12471 0.419377,0.20641 0.444112,0.18167 0.02472,-0.0247 0.14819,0.0363 0.274284,0.13545 0.12609,0.0992 0.337061,0.17943 0.46891,0.17829 0.20845,-0.002 0.174074,-0.0433 -0.264327,-0.31769 -0.541316,-0.33887 -0.844207,-0.48308 -1.041897,-0.48562 z m 7.219457,7.2e-4 c -0.198798,7.6e-4 -0.500137,0.14432 -1.044151,0.48488 -0.438401,0.27445 -0.472962,0.31588 -0.264511,0.31768 0.131849,7.3e-4 0.33815,-0.0743 0.458388,-0.16757 0.120237,-0.0933 0.259747,-0.15549 0.310166,-0.13808 0.05041,0.0174 0.256718,-0.0684 0.458388,-0.19069 0.302913,-0.18369 0.338471,-0.2333 0.204586,-0.28498 -0.03668,-0.0142 -0.07699,-0.0215 -0.122866,-0.0212 z m 11.64913,0.91698 c -0.0026,7.2e-4 -0.005,0.002 -0.0077,0.005 -0.03094,0.0309 -0.153018,0.33321 -0.271274,0.67163 -0.347585,0.99472 -1.009131,2.00094 -1.901947,2.89274 l -0.808758,0.80763 0.16476,0.71164 c 0.295756,1.27781 0.18533,2.9545 -0.28856,4.37837 -0.114784,0.34487 0.403934,-0.33562 0.929555,-1.21943 1.209006,-2.03291 1.870989,-4.01064 2.138278,-6.38891 0.100188,-0.89145 0.122815,-1.87636 0.04565,-1.85855 z m -30.50926,0.0725 c -0.08206,0.0175 -0.06957,0.5774 0.03588,1.68948 0.265363,2.79832 1.242338,5.38981 2.913223,7.72838 0.116871,0.16357 0.225925,0.29739 0.242343,0.29739 0.01644,0 -0.06854,-0.30981 -0.188801,-0.68852 -0.418323,-1.31731 -0.465303,-2.93235 -0.124556,-4.28558 l 0.108585,-0.43115 -0.812517,-0.80537 C 9.900047,26.01381 9.168082,24.89071 8.875723,23.95297 8.757918,23.57511 8.674721,23.39034 8.625487,23.40084 Z m 14.554081,2.3673 c -0.01931,-10e-6 -0.04634,0.0402 -0.08397,0.10614 -0.07785,0.13633 -0.11016,0.34624 -0.07984,0.51813 0.04991,0.28301 0.04053,0.29196 -0.45764,0.43678 -0.279723,0.0813 -0.546558,0.13697 -0.592899,0.12362 -0.04635,-0.0134 -0.229525,0.10681 -0.407103,0.26714 -0.374902,0.3385 -0.469306,0.76288 -0.455197,2.04604 0.01407,1.282 0.349882,2.3579 1.101452,3.52923 0.348552,0.54321 1.492586,1.78753 1.64344,1.78753 0.02603,0 0.255591,-0.17435 0.510241,-0.38756 0.541465,-0.45334 1.307027,-1.46215 1.653586,-2.17904 0.406828,-0.84156 0.618751,-1.85167 0.615635,-2.93351 -0.0036,-1.23714 -0.08826,-1.57982 -0.469287,-1.89932 -0.167123,-0.14014 -0.338541,-0.24387 -0.380991,-0.23051 -0.04244,0.0134 -0.306039,-0.0423 -0.585762,-0.12362 -0.498168,-0.14482 -0.507554,-0.15377 -0.457636,-0.43678 0.03032,-0.17189 -0.0022,-0.3818 -0.07984,-0.51813 -0.120431,-0.21091 -0.131148,-0.15998 -0.134136,0.63742 -0.0033,0.83994 0.0052,0.87497 0.270899,1.14917 l 0.274095,0.28293 -0.594967,0.58971 -0.594967,0.5897 -0.594967,-0.5897 -0.594971,-0.58971 0.274095,-0.28293 c 0.265759,-0.2742 0.274049,-0.30923 0.270904,-1.14917 -0.0022,-0.54821 -0.0077,-0.74356 -0.05016,-0.74356 z m 2.831499,0.61882 c -0.04646,-0.005 -0.08327,0.0575 -0.102009,0.18899 -0.01763,0.12371 0.04997,0.25189 0.180912,0.3436 0.114923,0.0805 0.218223,0.14635 0.229573,0.14635 0.01134,0 -0.03297,-0.15454 -0.09844,-0.3436 -0.07453,-0.21529 -0.150298,-0.32986 -0.210032,-0.33534 z m 0.845018,1.38945 c -0.02861,0.004 -0.02941,0.0334 -0.01371,0.0851 0.664618,2.18755 0.207379,4.84169 -1.173404,6.81292 -0.229551,0.32771 -0.417639,0.62087 -0.418185,0.65133 -0.0011,0.0571 1.150502,0.41028 1.557213,0.47755 0.544657,0.0901 1.688512,0.0521 2.298148,-0.0761 1.399596,-0.29442 2.473986,-0.87694 3.474938,-1.8841 1.040322,-1.04678 1.64248,-2.18263 1.888793,-3.56323 0.108524,-0.6083 0.176223,-1.74715 0.103889,-1.74715 -0.01436,0 -0.251599,0.0784 -0.527148,0.17434 -0.275546,0.0959 -0.913455,0.2447 -1.417627,0.33065 -1.848256,0.31504 -3.594015,-0.03 -5.347951,-1.05674 -0.252595,-0.14788 -0.377238,-0.21135 -0.42495,-0.20459 z m -5.960767,0.007 c -0.05222,0 -0.184566,0.0763 -0.465528,0.24553 -1.268209,0.76367 -3.15003,1.22142 -4.528671,1.10165 -0.829208,-0.0721 -1.807438,-0.27074 -2.257011,-0.45858 -0.181893,-0.076 -0.367488,-0.11539 -0.412549,-0.0876 -0.118333,0.0731 -0.09509,0.89275 0.0481,1.69529 0.24683,1.38352 0.856298,2.5345 1.888983,3.56718 0.978041,0.97805 2.098495,1.5942 3.422896,1.88222 0.669948,0.14571 1.866949,0.16714 2.441492,0.0438 0.736385,-0.15811 1.466662,-0.3924 1.466662,-0.4706 0,-0.042 -0.13772,-0.25687 -0.306032,-0.47736 -0.820286,-1.07464 -1.360806,-2.46423 -1.535796,-3.94799 -0.08282,-0.7023 -0.07511,-1.02912 0.04321,-1.80707 0.07945,-0.52238 0.170922,-1.04246 0.203081,-1.15574 0.02399,-0.0845 0.03177,-0.13075 -0.0088,-0.13075 z m 2.971648,8.8272 c -0.07665,0.006 -0.16507,0.0569 -0.333273,0.15818 -1.266227,0.76222 -2.482365,1.15604 -3.899512,1.26302 l -0.843698,0.0637 0.490325,0.16664 c 1.729462,0.58786 4.069766,0.8282 6.073861,0.62371 1.050982,-0.10723 2.376982,-0.37326 3.11987,-0.62577 l 0.484317,-0.16458 -0.839569,-0.0633 C 26.729476,37.9273 25.217663,37.43104 24.129604,36.72261 24.008549,36.64381 23.943617,36.6047 23.866968,36.61064 Z"
     id="path3737" />
  <path
     d="m 55.293854,19.03109 -0.441558,-0.95671 h 7.764059 v -4.30519 l 1.98701,-2.24458 0.220779,-0.0368 v 6.58657 h 3.753242 q 0.809522,-0.33117 1.25108,-2.1342 l 2.906923,3.09091 h -7.911245 v 21.37876 l -2.207789,0.36796 V 19.03109 Z m 0.257575,5.74025 3.900428,-2.50216 0.183982,0.0368 q -0.404761,11.11256 -4.525968,16.63203 l -0.588744,-0.44156 q 2.502161,-5.70345 2.796533,-13.02596 0.0368,-1.14069 -1.766231,-0.25757 z m 11.922062,-1.72943 0.883116,-0.44156 q 3.863631,6.84414 4.047613,15.89608 l -2.428568,0.0736 q -0.07359,-9.01514 -2.502161,-15.52811 z m 0.147186,-9.71428 V 8.02894 l 1.324674,-0.29437 v 5.2251 z m 3.238091,0 V 8.02894 l 1.324673,-0.29437 v 5.29869 z"
     style="font-style:normal;font-variant:normal;font-weight:normal;font-stretch:normal;font-size:96px;line-height:1.25;font-family:'刻明朝 Regular';-inkscape-font-specification:'刻明朝 Regular, Normal';font-variant-ligatures:normal;font-variant-caps:normal;font-variant-numeric:normal;font-feature-settings:normal;text-align:start;letter-spacing:0px;word-spacing:0px;writing-mode:lr-tb;text-anchor:start;fill:#ffffff;fill-opacity:1;stroke:none;stroke-width:0.39249587"
     id="path79"
     inkscape:connector-curvature="0" />
  <path
     d="m 81.014599,13.54841 4.231596,-1.36147 0.441557,0.11039 q -0.588743,3.42207 -1.655841,6.36579 h 8.941546 q 0.883116,-0.33116 1.36147,-2.13419 l 3.127702,3.0909 h -5.004323 q 0,15.89609 -12.290027,20.67963 L 79.837111,39.67392 Q 89.992942,34.6696 90.140128,19.61983 h -6.439386 q -2.023807,5.2619 -5.482677,9.01514 l -0.51515,-0.51515 q 3.863631,-6.51298 4.967525,-13.20994 0.331169,-1.32467 -1.655841,-0.91991 z"
     style="font-style:normal;font-variant:normal;font-weight:normal;font-stretch:normal;font-size:96px;line-height:1.25;font-family:'刻明朝 Regular';-inkscape-font-specification:'刻明朝 Regular, Normal';font-variant-ligatures:normal;font-variant-caps:normal;font-variant-numeric:normal;font-feature-settings:normal;text-align:start;letter-spacing:0px;word-spacing:0px;writing-mode:lr-tb;text-anchor:start;fill:#ffffff;fill-opacity:1;stroke:none;stroke-width:0.39249587"
     id="path81"
     inkscape:connector-curvature="0" />
  <path
     d="m 105.96262,15.49863 q -2.72294,-0.0368 -3.86363,1.72943 l -0.51516,-0.0736 0.69914,-2.61255 h 17.51513 v 1.14069 q -1.91342,8.90475 -9.38311,14.79219 2.87013,3.82683 4.93073,8.13202 l -2.20779,1.0671 q -3.42207,-8.3528 -8.83116,-14.7186 l 0.62555,-0.77272 q 2.72294,2.64934 4.96752,5.59306 5.37229,-5.92423 7.06493,-13.28353 0.22078,-1.0303 -0.58875,-0.9935 z"
     style="font-style:normal;font-variant:normal;font-weight:normal;font-stretch:normal;font-size:96px;line-height:1.25;font-family:'刻明朝 Regular';-inkscape-font-specification:'刻明朝 Regular, Normal';font-variant-ligatures:normal;font-variant-caps:normal;font-variant-numeric:normal;font-feature-settings:normal;text-align:start;letter-spacing:0px;word-spacing:0px;writing-mode:lr-tb;text-anchor:start;fill:#ffffff;fill-opacity:1;stroke:none;stroke-width:0.39249587"
     id="path83"
     inkscape:connector-curvature="0" />
  <path
     d="m 136.39331,15.35144 3.90043,-2.50216 0.18398,0.0368 v 12.80519 q 0,10.96536 -10.08224,14.46102 l -0.33116,-0.62554 q 8.09522,-3.56926 8.09522,-13.90907 v -9.56709 q -0.0368,-1.14069 -1.76623,-0.25757 z m -11.33332,0.0736 3.82684,-2.50216 0.18398,0.0368 v 15.96969 l -2.24458,0.95671 V 16.1242 q -0.0368,-1.14069 -1.76624,-0.25758 z"
     style="font-style:normal;font-variant:normal;font-weight:normal;font-stretch:normal;font-size:96px;line-height:1.25;font-family:'刻明朝 Regular';-inkscape-font-specification:'刻明朝 Regular, Normal';font-variant-ligatures:normal;font-variant-caps:normal;font-variant-numeric:normal;font-feature-settings:normal;text-align:start;letter-spacing:0px;word-spacing:0px;writing-mode:lr-tb;text-anchor:start;fill:#ffffff;fill-opacity:1;stroke:none;stroke-width:0.39249587"
     id="path85"
     inkscape:connector-curvature="0" />
  <path
     d="m 158.25043,18.81031 3.71645,-1.83982 0.14718,0.0368 q -1.50865,17.40474 -11.62769,23.1082 l -0.36797,-0.62554 q 7.91125,-6.10822 9.60389,-19.57574 0.18398,-1.14069 -1.32467,-0.77272 z m -11.18614,-0.95671 0.73593,-0.14718 q 1.69264,3.71644 2.50217,10.04544 l -1.65585,0.29437 q -0.36796,-6.47618 -1.58225,-10.19263 z m 4.74675,0 0.73593,-0.14718 q 1.72944,3.71644 2.53896,10.04544 l -1.65584,0.29437 q -0.40476,-6.47618 -1.61905,-10.19263 z"
     style="font-style:normal;font-variant:normal;font-weight:normal;font-stretch:normal;font-size:96px;line-height:1.25;font-family:'刻明朝 Regular';-inkscape-font-specification:'刻明朝 Regular, Normal';font-variant-ligatures:normal;font-variant-caps:normal;font-variant-numeric:normal;font-feature-settings:normal;text-align:start;letter-spacing:0px;word-spacing:0px;writing-mode:lr-tb;text-anchor:start;fill:#ffffff;fill-opacity:1;stroke:none;stroke-width:0.39249587"
     id="path87"
     inkscape:connector-curvature="0" />
  <path
     d="m 171.34998,13.54841 4.2316,-1.36147 0.44155,0.11039 q -0.40476,2.28138 -1.06709,4.37878 h 10.08223 v 0.99351 q -0.36796,16.08006 -14.6818,22.48265 l -0.40476,-0.62554 q 12.14284,-6.84414 12.43722,-21.19477 0.0368,-0.73593 -0.77273,-0.69914 h -6.99133 q -2.35498,6.54978 -7.3961,11.00215 l -0.44155,-0.66233 q 5.11471,-6.3658 6.2186,-13.06276 0.33117,-1.32467 -1.65584,-0.91991 z"
     style="font-style:normal;font-variant:normal;font-weight:normal;font-stretch:normal;font-size:96px;line-height:1.25;font-family:'刻明朝 Regular';-inkscape-font-specification:'刻明朝 Regular, Normal';font-variant-ligatures:normal;font-variant-caps:normal;font-variant-numeric:normal;font-feature-settings:normal;text-align:start;letter-spacing:0px;word-spacing:0px;writing-mode:lr-tb;text-anchor:start;fill:#ffffff;fill-opacity:1;stroke:none;stroke-width:0.39249587"
     id="path89"
     inkscape:connector-curvature="0" />
  <path
     d="m 211.53174,28.19341 h -6.36579 q -0.0368,1.58225 -0.22078,3.01732 2.24459,0.73593 3.90043,1.87662 1.72944,1.25108 1.72944,2.42857 0,1.25108 -1.14069,1.25108 -0.58875,0 -0.99351,-0.88312 -0.84632,-1.80303 -3.67965,-3.67965 -1.14069,5.59307 -6.18181,8.61038 l -0.58874,-0.73593 q 3.60605,-3.01731 4.59956,-7.39609 0.44156,-2.06061 0.47835,-4.48918 h -3.82683 l -0.40476,-0.91991 h 12.5108 q -0.84632,-6.2922 -0.84632,-20.16447 3.38528,0.18398 3.38528,0.95671 0,0.47835 -1.39827,0.91991 0,14.01946 0.69914,18.17746 h 7.54328 l 1.47186,-2.0238 q 0.91991,0.80952 2.0606,2.24458 l -0.40476,0.69913 h -10.4502 q 0.73593,3.67965 2.31817,6.14502 1.83983,-2.17099 3.27489,-5.44588 2.53896,1.21428 2.53896,1.98701 0,0.40476 -1.28788,0.40476 -1.69264,2.72294 -3.34848,4.41558 2.20779,2.35497 3.60606,2.35497 1.0303,0 1.69264,-4.93073 l 0.9567,0.55195 q -0.33116,2.72294 -0.33116,3.79004 0,1.65584 0.95671,1.95021 -0.44156,1.58225 -1.72944,1.58225 -2.75974,0 -6.54977,-3.86363 -3.01732,2.50216 -8.64718,3.93723 l -0.47835,-0.84632 q 4.74674,-1.50866 7.80085,-4.30519 l 0.14719,-0.14719 q -1.91342,-2.87012 -2.79654,-7.46969 z m 3.79004,-7.02812 0.29437,-0.36797 q 2.50217,-3.31168 4.93073,-8.09523 2.46537,1.17749 2.46537,1.80303 0,0.40476 -1.25108,0.47836 -2.53896,3.31168 -5.2987,6.14501 2.24459,-0.0736 4.34199,-0.29437 -0.51515,-0.84632 -1.25108,-1.65585 l 0.44156,-0.58874 q 3.60605,1.80303 3.60605,4.1948 0,1.28788 -1.17748,1.28788 -0.88312,0 -0.91992,-0.99351 -0.0368,-0.62554 -0.25757,-1.36147 -3.79004,0.84632 -6.47618,1.1039 -0.22078,1.0671 -0.55195,1.0671 -0.58875,0 -1.1039,-2.68615 1.50866,0 2.20779,-0.0368 z M 194.2006,23.1155 q -1.65584,5.37229 -4.41558,10.15583 l -0.80952,-0.55195 q 3.60605,-7.2857 5.1883,-16.33764 h -4.56276 l -0.33117,-0.95671 h 4.93073 v -8.316 q 3.64285,0.22078 3.64285,1.06709 0,0.44156 -1.61904,1.03031 v 6.2186 h 1.28787 l 1.47186,-1.95021 q 1.0671,1.10389 1.98701,2.28138 l -0.33117,0.62554 h -4.41557 v 3.34848 q 3.97402,2.31818 3.97402,4.85714 0,1.36147 -1.21429,1.36147 -0.69913,0 -0.9935,-1.25108 -0.44156,-1.98701 -1.76623,-3.75324 V 40.925 h -2.02381 z m 7.94804,-1.17749 q 3.1645,-4.30519 5.15151,-8.75756 2.39177,1.0671 2.39177,1.76623 0,0.40476 -1.10389,0.40476 -2.39178,3.45887 -5.33549,6.54977 0.58874,0 3.64285,-0.25757 l 0.66233,-0.0368 q -0.36796,-0.77272 -1.36147,-1.87662 l 0.44156,-0.58874 q 3.60606,1.80303 3.60606,4.23159 0,1.21429 -1.14069,1.21429 -0.84632,0 -1.03031,-1.28788 -0.0368,-0.33117 -0.18398,-0.80952 -2.94372,0.77272 -5.77705,1.21428 -0.33116,0.91991 -0.66233,0.91991 -0.51515,0 -1.14069,-2.64934 0.69913,0 1.83982,-0.0368 z m 13.46751,-7.98484 q 1.17749,-2.87012 1.83983,-6.03462 2.90692,0.88312 2.90692,1.69264 0,0.44156 -1.28788,0.55195 -1.25108,2.42856 -2.72294,4.34198 1.25109,0.99351 1.25109,2.0606 0,1.21429 -1.1039,1.21429 -0.80952,0 -1.0303,-0.99351 -0.40476,-1.76623 -2.35498,-3.23809 l 0.44156,-0.55195 q 1.1039,0.40477 2.0606,0.95671 z m -12.62119,0.0736 q 1.14069,-2.75974 1.83982,-6.10822 2.94372,0.88312 2.94372,1.58225 0,0.44156 -1.25108,0.62554 -1.17749,2.17099 -2.87012,4.45237 1.32467,1.0671 1.32467,2.1342 0,1.21428 -1.21428,1.21428 -0.66234,0 -0.91992,-0.91991 -0.47835,-1.72943 -2.53895,-3.42207 l 0.44155,-0.58875 q 1.47186,0.51516 2.24459,1.03031 z m 13.20994,9.08873 q 3.64285,0.58874 3.64285,2.28138 0,1.14069 -1.14069,1.14069 -0.73593,0 -1.0303,-0.80952 -0.36797,-1.17749 -1.72944,-1.95021 z"
     style="font-style:normal;font-variant:normal;font-weight:normal;font-stretch:normal;font-size:96px;line-height:1.25;font-family:'刻明朝 Regular';-inkscape-font-specification:'刻明朝 Regular, Normal';font-variant-ligatures:normal;font-variant-caps:normal;font-variant-numeric:normal;font-feature-settings:normal;text-align:start;letter-spacing:0px;word-spacing:0px;writing-mode:lr-tb;text-anchor:start;fill:#ffffff;fill-opacity:1;stroke:none;stroke-width:0.39249587"
     id="path91"
     inkscape:connector-curvature="0" />
  <path
     d="m 250.46243,23.99861 h 5.04112 l 1.36147,-1.50865 q 2.31818,1.65584 2.31818,2.20779 0,0.18398 -0.25758,0.33117 l -0.9935,0.66233 v 6.84415 h 0.9935 l 1.39827,-2.20779 q 1.0303,1.17749 1.80303,2.46537 l -0.40477,0.69913 h -3.79003 v 4.12121 q 0,3.0541 -3.45887,3.01731 0,-1.0671 -1.1407,-1.50866 -0.77272,-0.29437 -3.60605,-0.84632 v -1.0303 q 2.98051,0.33117 4.78354,0.33117 1.28788,0 1.28788,-1.1039 V 33.49211 H 243.3975 V 40.925 h -2.17099 v -7.43289 h -3.79004 l -0.36796,-0.95671 h 4.158 v -9.71427 q 0.84632,0.33117 2.57575,1.17748 h 4.63636 v -3.23809 h -10.30301 l -0.36797,-0.95671 h 6.80735 v -3.31168 h -4.2316 l -0.36796,-0.95671 h 4.59956 v -3.05411 h -5.59307 l -0.29437,-0.91991 h 5.88744 V 7.07223 q 3.56926,0 3.56926,0.77273 0,0.47835 -1.50866,0.9935 v 2.72294 h 5.59307 V 7.07223 q 3.49567,0.0368 3.49567,0.84632 0,0.44156 -1.47186,0.95671 v 2.68614 h 2.72294 l 1.61904,-2.0974 q 1.32468,1.32468 2.1342,2.35498 l -0.36797,0.66233 h -6.10821 v 3.05411 h 2.39177 l 1.43506,-1.80303 q 1.0671,0.95671 2.02381,2.02381 l -0.36797,0.73593 h -5.48267 v 3.31168 h 3.75324 l 1.54545,-1.95021 q 0.29437,0.29437 0.69913,0.66234 0.62554,0.62554 1.43507,1.58225 l -0.33117,0.66233 h -10.89176 z m 5.33549,5.07792 h -5.33549 v 3.45887 h 5.33549 z m 0,-0.95671 v -3.20129 h -5.33549 v 3.20129 z m -7.3593,-3.20129 h -5.04112 v 3.20129 h 5.04112 z m 0,7.61687 v -3.45887 h -5.04112 v 3.45887 z m 3.79004,-20.05409 h -5.59307 v 3.05411 h 5.59307 z m 0,4.01082 h -5.59307 v 3.31168 h 5.59307 z m -19.98049,6.2922 q -1.91342,6.03462 -4.70995,10.78137 l -0.88312,-0.62554 q 3.93723,-7.69046 5.40909,-16.44803 h -4.70996 l -0.29437,-0.95671 h 5.18831 V 7.10903 q 3.79004,0.14718 3.79004,1.06709 0,0.51516 -1.69264,1.03031 v 6.32899 h 1.43506 l 1.58225,-2.31818 q 0.95671,1.1039 1.91342,2.46537 l -0.36797,0.80952 h -4.56276 v 4.1948 q 2.20779,1.58225 3.49566,3.38528 1.14069,1.61904 1.14069,2.68614 0,1.21429 -1.17748,1.21429 -0.80953,0 -1.1039,-1.28788 -0.51515,-2.28138 -2.35497,-4.70995 V 40.925 h -2.0974 z"
     style="font-style:normal;font-variant:normal;font-weight:normal;font-stretch:normal;font-size:96px;line-height:1.25;font-family:'刻明朝 Regular';-inkscape-font-specification:'刻明朝 Regular, Normal';font-variant-ligatures:normal;font-variant-caps:normal;font-variant-numeric:normal;font-feature-settings:normal;text-align:start;letter-spacing:0px;word-spacing:0px;writing-mode:lr-tb;text-anchor:start;fill:#ffffff;fill-opacity:1;stroke:none;stroke-width:0.39249587"
     id="path93"
     inkscape:connector-curvature="0" />
</svg>
